<svg xmlns="http://www.w3.org/2000/svg" width="72" height="19" stroke="none" stroke-linecap="round" stroke-linejoin="round" fill="#fff" fill-rule="nonzero"><path d="M13.675 4.423c0 1.64-.675 2.96-2.0339 3.964S8.3851 9.89 5.9499 9.89H4.6001L3.563 14.368H0L3.1761.612h4.944C9.02.612 9.8.676 10.468.797s1.246.338 1.73.635a3.08 3.08 0 0 1 1.101 1.174c.25.498.3781 1.1.3781 1.817zm-3.7869.346c0-.54-.193-.933-.587-1.2s-.9651-.386-1.73-.386h-1.43L5.191 7.299h1.28c1.0771 0 1.9201-.217 2.5161-.66.603-.442.9-1.07.9-1.88zm10.3399 8.506l-.756.5c-.297.193-.5699.346-.8199.458a6.179 6.179 0 0 1-.973.322c-.3061.072-.7241.113-1.2541.113-.8599 0-1.5679-.24-2.114-.724s-.82-1.118-.82-1.9c0-.82.193-1.5.58-2.082s.9651-1.03 1.7301-1.367c.7159-.322 1.5679-.555 2.5499-.7l3.2081-.314.04-.177c.024-.08.032-.177.032-.28.0203-.4036-.2221-.7741-.6-.917-.4-.177-1.013-.265-1.817-.265-.5471 0-1.15.088-1.8171.273l-1.487.458h-.3059l.5-2.46c.386-.096.9999-.2 1.7999-.33s1.6241-.185 2.4281-.185c1.6239 0 2.822.2 3.578.635.7639.426 1.1419 1.085 1.1419 1.978-.0011.1612-.0118.3221-.032.482-.0169.1736-.0463.3457-.088.515l-1.6239 7.06h-3.304zm.8841-3.795l-1.6721.177a6.269 6.269 0 0 0-1.3269.297c-.3781.137-.6671.33-.8601.57-.1999.25-.2969.57-.2969.98 0 .354.13.6.3939.756s.643.217 1.15.217c.3301 0 .675-.072 1.0529-.225.3728-.1512.7262-.3459 1.0532-.58zm9.038 8.7h-3.66l2.6448-4.012L27.431 4.006h3.4l.9 6.794 3.9471-6.794h3.5129z" fill="#123984"/><path d="M52.4901 4.423c0 1.64-.6751 2.96-2.0339 3.964s-3.2561 1.503-5.691 1.503h-1.3501l-1.037 4.478h-3.562L41.9841.62h4.9439c.9 0 1.68.064 2.3482.185s1.2459.338 1.7298.635a3.081 3.081 0 0 1 1.1011 1.174c.2569.5.3861 1.093.3861 1.8zm-3.7951.346c0-.54-.193-.933-.5869-1.2s-.9649-.386-1.7299-.386H44.948l-.9499 4.116h1.2779c1.0771 0 1.9202-.217 2.5161-.66.6031-.442.9-1.07.9-1.88zm10.3481 8.506l-.7561.5c-.2969.193-.5698.346-.8198.458a6.162 6.162 0 0 1-.973.322c-.3061.072-.7241.113-1.2541.113-.86 0-1.568-.24-2.114-.724s-.8201-1.118-.8201-1.9c0-.82.193-1.5.5801-2.082s.9651-1.03 1.7301-1.367c.7159-.322 1.5679-.555 2.5499-.7l3.208-.314.0401-.177c.024-.08.0319-.177.0319-.28a.93.93 0 0 0-.5999-.917c-.4-.177-1.0131-.265-1.8171-.265-.5471 0-1.15.088-1.817.273l-1.487.458h-.3059l.4999-2.46c.3861-.096 1-.2 1.8-.33s1.6241-.185 2.4281-.185c1.6238 0 2.822.2 3.578.635.7639.426 1.1418 1.085 1.1418 1.978-.001.1612-.0117.3221-.0319.482a3.606 3.606 0 0 1-.0881.515l-1.6238 7.06H58.811zm.884-3.795l-1.672.177a6.269 6.269 0 0 0-1.3269.297c-.3781.137-.6671.33-.8601.57-.1999.25-.297.57-.297.98 0 .354.13.6.394.756s.6429.217 1.15.217c.3301 0 .675-.072 1.0529-.225.3728-.1512.7262-.3459 1.0531-.58zM71.8022 0l-3.3201 14.375h-3.345L68.4571 0z" fill="#009de2"/></svg>